<?xml version="1.0" encoding="utf-8"?>
<!-- Generator: Adobe Illustrator 16.0.0, SVG Export Plug-In . SVG Version: 6.00 Build 0)  -->
<!DOCTYPE svg PUBLIC "-//W3C//DTD SVG 1.1//EN" "http://www.w3.org/Graphics/SVG/1.1/DTD/svg11.dtd">
<svg version="1.1" xmlns="http://www.w3.org/2000/svg" xmlns:xlink="http://www.w3.org/1999/xlink" x="0px" y="0px" viewBox="0 0 31 31">
<g id="background" display="none">
</g>
<g id="Layer_2">
	<g>
		<path fill="#415178" d="M15.3,1c7.9,0,14.3,6.4,14.3,14.3c0,7.9-6.4,14.3-14.3,14.3C7.4,29.5,1,23.1,1,15.3C1,7.4,7.4,1,15.3,1
			 M15.3,0C6.8,0,0,6.8,0,15.3s6.8,15.3,15.3,15.3s15.3-6.8,15.3-15.3S23.7,0,15.3,0"/>
		<path fill="#415178" d="M23.3,14l-1.7-0.3c-0.1-0.5-0.3-1-0.5-1.5l1.1-1.4c0.2-0.3,0.2-0.7,0-1l-0.7-0.8c-0.3-0.3-0.7-0.3-1-0.1
			L19,9.9c-0.7-0.5-1.4-0.8-2.2-1l-0.3-1.7c-0.1-0.4-0.4-0.6-0.8-0.6h-1c-0.4,0-0.7,0.3-0.8,0.6l-0.3,1.7c-0.7,0.2-1.3,0.4-1.8,0.8
			l-1.4-1c-0.3-0.2-0.7-0.2-1,0.1L8.7,9.5c-0.3,0.3-0.3,0.7-0.1,1l1,1.4c-0.3,0.6-0.6,1.2-0.8,1.8L7.2,14c-0.4,0.1-0.6,0.4-0.6,0.8
			v1c0,0.4,0.3,0.7,0.6,0.8l1.7,0.3c0.1,0.5,0.3,1,0.6,1.5l-1.1,1.4c-0.2,0.3-0.2,0.7,0,1l0.7,0.8c0.2,0.3,0.7,0.3,1,0.1l1.5-0.9
			c0.6,0.4,1.3,0.8,2.1,0.9l0.3,1.7c0.1,0.4,0.4,0.6,0.8,0.6h1c0.4,0,0.7-0.3,0.8-0.6l0.3-1.7c0.6-0.2,1.3-0.4,1.8-0.7l1.5,1
			c0.3,0.2,0.7,0.2,1-0.1l0.7-0.7c0.3-0.3,0.3-0.7,0.1-1l-1-1.5c0.3-0.6,0.6-1.2,0.8-1.8l1.7-0.3c0.4-0.1,0.6-0.4,0.6-0.8v-1
			C24,14.4,23.7,14,23.3,14 M15.3,18.5c-1.8,0-3.3-1.5-3.3-3.3s1.5-3.3,3.3-3.3c1.8,0,3.3,1.5,3.3,3.3S17.1,18.5,15.3,18.5"/>
	</g>
</g>
</svg>
