<?xml version="1.0" encoding="utf-8"?>
<!-- Generator: Adobe Illustrator 16.0.0, SVG Export Plug-In . SVG Version: 6.00 Build 0)  -->
<!DOCTYPE svg PUBLIC "-//W3C//DTD SVG 1.1//EN" "http://www.w3.org/Graphics/SVG/1.1/DTD/svg11.dtd">
<svg version="1.1" xmlns="http://www.w3.org/2000/svg" xmlns:xlink="http://www.w3.org/1999/xlink" x="0px" y="0px" width="1280px"
	 height="84px" viewBox="0 0 1280 84" enable-background="new 0 0 1280 84" xml:space="preserve">
<g id="background" display="none">
	<rect x="-1333.9" y="51" display="inline" fill="#8D8D8D" stroke="#231F20" stroke-miterlimit="10" width="1437" height="523"/>
</g>
<g id="Layer_2">
	<g>
		<path fill="#3EC7F4" d="M24.2,1.5C12.8,1.5,3.6,10.7,3.6,22s9.2,20.5,20.5,20.5S44.7,33.3,44.7,22S35.5,1.5,24.2,1.5z M24.2,31.5
			c-5.2,0-9.5-4.2-9.5-9.5s4.2-9.5,9.5-9.5s9.5,4.2,9.5,9.5S29.4,31.5,24.2,31.5z M34.6,14.7c-1.7,0-3.1-1.4-3.1-3.1
			c0-1.7,1.4-3.1,3.1-3.1s3.1,1.4,3.1,3.1C37.7,13.3,36.3,14.7,34.6,14.7z"/>
		<text transform="matrix(1 0 0 1 54.1631 28.3315)"><tspan x="0" y="0" fill="#231F20" font-family="'OpenSans-Extrabold'" font-size="18.0653">OWNED</tspan><tspan x="71.4" y="0" fill="#231F20" font-family="'OpenSans'" font-size="18.0653">OUTCOMES</tspan></text>
	</g>
</g>
</svg>
