<?xml version="1.0" encoding="utf-8"?>
<!-- Generator: Adobe Illustrator 16.0.0, SVG Export Plug-In . SVG Version: 6.00 Build 0)  -->
<!DOCTYPE svg PUBLIC "-//W3C//DTD SVG 1.1//EN" "http://www.w3.org/Graphics/SVG/1.1/DTD/svg11.dtd">
<svg version="1.1" xmlns="http://www.w3.org/2000/svg" xmlns:xlink="http://www.w3.org/1999/xlink" x="0px" y="0px" width="96px"
	 height="99.3px" viewBox="0 0 96 99.3" enable-background="new 0 0 96 99.3" xml:space="preserve">
<g id="background" display="none">
</g>
<g id="Layer_2">
	<path fill="#415178" d="M13.1,11.8l-1.6-1.6l-1.3-1.3c0.9-1.2,1.3-2.9,0.9-4.6C10.7,2.3,9,0.6,6.9,0.1C2.8-0.8-0.8,2.8,0.1,6.9
		c0.5,2.1,2.2,3.8,4.3,4.2c1.8,0.4,3.4-0.1,4.7-1.1l2.2,2.2c0,0,0.1,0,0.1,0.1l0.6,0.6L13.1,11.8z M5.6,10c-2.7,0-4.8-2.5-4.2-5.3
		c0.4-1.6,1.6-2.8,3.2-3.2C7.4,0.8,10,2.9,10,5.6c0,1-0.3,1.9-0.9,2.6C8.9,8.5,8.7,8.7,8.4,8.9C7.7,9.6,6.7,10,5.6,10z"/>
</g>
</svg>
