<?xml version="1.0" encoding="utf-8"?>
<!-- Generator: Adobe Illustrator 16.0.0, SVG Export Plug-In . SVG Version: 6.00 Build 0)  -->
<!DOCTYPE svg PUBLIC "-//W3C//DTD SVG 1.1//EN" "http://www.w3.org/Graphics/SVG/1.1/DTD/svg11.dtd">
<svg version="1.1" xmlns="http://www.w3.org/2000/svg" xmlns:xlink="http://www.w3.org/1999/xlink" x="0px" y="0px" viewBox="0 0 20 22" >
<g id="background" display="none">
</g>
<g id="Layer_2">
	<g>
		<g>
			<path fill="#415178" d="M11.1,2.2c-0.4,0-0.8,0-1.2,0C9.5,2.2,9.2,1.9,9,1.5C8.8,1.1,8.9,0.7,9.2,0.4C9.4,0.1,9.7,0,10,0
				c0.7,0,1.4,0,2.2,0c0.6,0,1.1,0.4,1.1,1c0,0.8,0,1.6,0,2.4c0,1.2,0,2.4,0,3.5c-0.1,2.9-2.3,5.6-5.2,6.2c-0.3,0.1-0.4,0.2-0.4,0.5
				c0,0.9,0,1.9,0,2.8c0.1,2.1,2.1,3.8,4.2,3.6c1.8-0.2,3.3-1.6,3.5-3.3c0-0.2,0-0.3-0.2-0.3c-1.4-0.6-2.1-2-2-3.5
				c0.2-1.5,1.3-2.6,2.8-2.9c1.7-0.3,3.5,1,3.8,2.8c0.2,1.6-0.5,2.9-2,3.5c-0.2,0.1-0.3,0.3-0.3,0.5c-0.2,1.4-0.8,2.6-1.7,3.6
				c-2,2.1-5.5,2.4-7.8,0.6c-1.6-1.2-2.4-2.7-2.5-4.6c0-1,0-1.9,0-2.9c0-0.2,0-0.3-0.3-0.3c-2.5-0.6-4.2-2.1-5-4.5
				C0.1,8,0,7.2,0,6.5c0-1.7,0-3.4,0-5.2C0,0.4,0.4,0,1.4,0C2,0,2.7,0,3.3,0c0.8,0,1.3,0.7,1.1,1.4c-0.1,0.4-0.5,0.8-1,0.8
				c-0.3,0-0.6,0-1,0c-0.2,0-0.3,0.1-0.3,0.2c0,1.6,0,3.1,0,4.7c0.1,1.9,1.7,3.6,3.6,4c2.4,0.4,4.6-1.1,5.2-3.4
				c0.1-0.3,0.1-0.6,0.1-0.9c0-1.4,0-2.8,0-4.2C11.1,2.4,11.1,2.3,11.1,2.2z M16.7,11.7c-0.9,0-1.7,0.7-1.7,1.6
				c0,0.9,0.7,1.7,1.6,1.7c0.9,0,1.7-0.7,1.7-1.6C18.4,12.5,17.6,11.7,16.7,11.7z"/>
		</g>
	</g>
</g>
</svg>
