<?xml version="1.0" encoding="utf-8"?>
<!-- Generator: Adobe Illustrator 16.0.0, SVG Export Plug-In . SVG Version: 6.00 Build 0)  -->
<!DOCTYPE svg PUBLIC "-//W3C//DTD SVG 1.1//EN" "http://www.w3.org/Graphics/SVG/1.1/DTD/svg11.dtd">
<svg version="1.1" xmlns="http://www.w3.org/2000/svg" xmlns:xlink="http://www.w3.org/1999/xlink" x="0px" y="0px" viewBox="0 0 35 35"  xml:space="preserve">
<g id="background" display="none">
</g>
<g id="Layer_2">
	<g>
		<path fill="#405077" d="M33.3,16.6c0,9.2-7.4,16.6-16.6,16.6C7.4,33.3,0,25.8,0,16.6C0,7.5,7.4,0,16.6,0
			C25.8,0,33.3,7.5,33.3,16.6"/>
		<g>
			<g>
				<path fill="#FFFFFF" d="M17.4,10.6c-0.3,0-0.5,0-0.8,0c-0.3,0-0.5-0.2-0.6-0.5c-0.1-0.3-0.1-0.5,0.1-0.8
					c0.1-0.2,0.3-0.3,0.6-0.3c0.5,0,1,0,1.5,0c0.4,0,0.7,0.3,0.7,0.7c0,0.5,0,1.1,0,1.6c0,0.8,0,1.6,0,2.4c0,2-1.5,3.8-3.5,4.2
					c-0.2,0-0.3,0.1-0.3,0.3c0,0.6,0,1.2,0,1.9c0.1,1.4,1.4,2.6,2.8,2.4c1.2-0.1,2.2-1.1,2.4-2.2c0-0.1,0-0.2-0.1-0.2
					c-0.9-0.4-1.4-1.3-1.3-2.3c0.1-1,0.9-1.7,1.9-1.9c1.2-0.2,2.4,0.7,2.5,1.9c0.1,1-0.4,2-1.3,2.4c-0.2,0.1-0.2,0.2-0.2,0.3
					c-0.1,0.9-0.5,1.7-1.2,2.4c-1.4,1.4-3.7,1.6-5.3,0.4c-1-0.8-1.6-1.8-1.7-3.1c0-0.7,0-1.3,0-2c0-0.1,0-0.2-0.2-0.2
					c-1.7-0.4-2.8-1.4-3.3-3c-0.1-0.5-0.2-1-0.2-1.4c0-1.2,0-2.3,0-3.5c0-0.6,0.3-0.9,0.9-0.9c0.4,0,0.9,0,1.3,0
					c0.5,0,0.9,0.5,0.7,0.9c-0.1,0.3-0.3,0.5-0.7,0.5c-0.2,0-0.4,0-0.6,0c-0.1,0-0.2,0-0.2,0.2c0,1,0,2.1,0,3.1
					c0,1.3,1.2,2.5,2.4,2.7c1.6,0.3,3.1-0.7,3.5-2.3c0-0.2,0.1-0.4,0.1-0.6c0-0.9,0-1.9,0-2.8C17.4,10.8,17.4,10.7,17.4,10.6z
					 M21.2,17c-0.6,0-1.1,0.5-1.1,1.1c0,0.6,0.5,1.1,1.1,1.2c0.6,0,1.1-0.5,1.2-1.1C22.3,17.5,21.8,17,21.2,17z"/>
			</g>
		</g>
	</g>
</g>
</svg>
