<?xml version="1.0" encoding="utf-8"?>
<!-- Generator: Adobe Illustrator 16.0.0, SVG Export Plug-In . SVG Version: 6.00 Build 0)  -->
<!DOCTYPE svg PUBLIC "-//W3C//DTD SVG 1.1//EN" "http://www.w3.org/Graphics/SVG/1.1/DTD/svg11.dtd">
<svg version="1.1" xmlns="http://www.w3.org/2000/svg" xmlns:xlink="http://www.w3.org/1999/xlink" xml:space="preserve" class="svg-icons" viewBox="0 0 100 100">

    <!-- settings-icon -->
    <symbol id="settings-icon" viewBox="0 0 39 39">
		<path fill="#415178" d="M15.3,0.7c7.9,0,14.3,6.4,14.3,14.3c0,7.9-6.4,14.3-14.3,14.3C7.4,29.2,1,22.8,1,14.9
			C1,7.1,7.4,0.7,15.3,0.7 M15.3-0.3C6.8-0.3,0,6.5,0,14.9s6.8,15.3,15.3,15.3s15.3-6.8,15.3-15.3S23.7-0.3,15.3-0.3"/>
		<path fill="#415178" d="M23.3,13.6l-1.7-0.3c-0.1-0.5-0.3-1-0.5-1.5l1.1-1.4c0.2-0.3,0.2-0.7,0-1l-0.7-0.8c-0.3-0.3-0.7-0.3-1-0.1
			L19,9.6c-0.7-0.5-1.4-0.8-2.2-1l-0.3-1.7c-0.1-0.4-0.4-0.6-0.8-0.6h-1c-0.4,0-0.7,0.3-0.8,0.6l-0.3,1.7C13,8.7,12.4,9,11.9,9.3
			l-1.4-1c-0.3-0.2-0.7-0.2-1,0.1L8.7,9.1c-0.3,0.3-0.3,0.7-0.1,1l1,1.4c-0.3,0.6-0.6,1.2-0.8,1.8l-1.7,0.3
			c-0.4,0.1-0.6,0.4-0.6,0.8v1c0,0.4,0.3,0.7,0.6,0.8l1.7,0.3C9,17,9.2,17.5,9.5,18l-1.1,1.4c-0.2,0.3-0.2,0.7,0,1l0.7,0.8
			c0.2,0.3,0.7,0.3,1,0.1l1.5-0.9c0.6,0.4,1.3,0.8,2.1,0.9L14,23c0.1,0.4,0.4,0.6,0.8,0.6h1c0.4,0,0.7-0.3,0.8-0.6l0.3-1.7
			c0.6-0.2,1.3-0.4,1.8-0.7l1.5,1c0.3,0.2,0.7,0.2,1-0.1l0.7-0.7c0.3-0.3,0.3-0.7,0.1-1l-1-1.5c0.3-0.6,0.6-1.2,0.8-1.8l1.7-0.3
			c0.4-0.1,0.6-0.4,0.6-0.8v-1C24,14,23.7,13.7,23.3,13.6 M15.3,18.2c-1.8,0-3.3-1.5-3.3-3.3s1.5-3.3,3.3-3.3c1.8,0,3.3,1.5,3.3,3.3
			S17.1,18.2,15.3,18.2"/>
    </symbol>

    <!-- logout-icon -->
    <symbol id="logout-icon-new" viewBox="176 415 12 6">
        <polygon fill="#415178" points="176,410.6 176,411.5 176,414.6 179,414.6 179,412.5 182.7,416.1 179,419.7 179,417.6 176,417.6
            176,419.5 176,421.6 185,421.6 185,410.6 	"/>
            <path fill="#5A5C7C" d="M1103.8,413.7l-2.8,9.7h-16.5v-14.5h5.8l1.4,2.4h9.7v1.6h-14.4l-1.3,5.9l0.5,0.6l1.6-5.6H1103.8z"/>
    </symbol>

    <!-- bellchart-q1-icon -->
    <symbol id="bellchart-q1-icon" viewBox="0 0 25 25">
        <path fill="#CC1975" d="M8.1,3.1v9.4H0c0,0,1.7,0.6,4-2.5c2.3-3,1.6-3.3,2.1-4.2C6.8,4.4,8.1,3.1,8.1,3.1z"/>
        <line fill="none" stroke="#CC1975" stroke-miterlimit="10" x1="23.6" y1="12.5" x2="0.2" y2="12.5"/>
        <path fill="none" stroke="#CC1975" stroke-miterlimit="10" d="M0.8,12.5c0,0,2.4-0.5,4.1-4.3c1.7-3.8,3.7-7.7,6.9-7.7"/>
        <path fill="none" stroke="#CC1975" stroke-miterlimit="10" d="M23,12.5c0,0-2.4-0.5-4.1-4.3c-1.7-3.8-3.7-7.7-6.9-7.7"/>
        <line fill="none" stroke="#CC1975" stroke-miterlimit="10" x1="11.9" y1="12.5" x2="11.9" y2="0.6"/>
        <line fill="none" stroke="#CC1975" stroke-miterlimit="10" x1="16" y1="12.5" x2="16" y2="3.1"/>
        <line fill="none" stroke="#CC1975" stroke-miterlimit="10" x1="8.1" y1="12.5" x2="8.1" y2="2.7"/>
    </symbol>

    <!-- big-sense-link-icon -->
    <symbol id="big-sense-link-icon" viewBox="0 0 20 20">
        <path fill="#42C6F3" d="M15.8,0c-1.6-0.1-2.7,1.3-2.7,2.7c0.1,1,0.5,1.7,1.2,2.2c-0.6,0.9-1.2,1.9-1.9,2.8
            c-0.3-0.2-0.7-0.3-1.1-0.3c-0.5,0-1,0.2-1.4,0.5C9.1,7.1,8.4,6.3,7.7,5.5C7.8,5.2,7.9,5,7.9,4.7C7.9,3.6,7,2.8,6,2.8
            C4.9,2.7,4.2,3.7,4.1,4.7c0,0.3,0.1,0.6,0.2,0.8c-0.6,0.7-1.2,1.4-1.8,2C2.3,7.3,2,7.2,1.6,7.2C0.7,7.2,0,8,0,8.8
            c0,0.9,0.8,1.6,1.6,1.6c0.9,0.1,1.6-0.8,1.6-1.6C3.2,8.5,3.2,8.3,3,8c0.4-0.5,0.9-1,1.3-1.5C4.5,6.3,4.6,6.2,4.7,6
            C5,6.4,5.5,6.6,6,6.6c0.5,0,1-0.2,1.3-0.5C8,6.8,8.7,7.6,9.3,8.4C9,8.8,8.8,9.3,8.8,9.8c0.1,1.4,1.1,2.3,2.4,2.4
            c1.4,0.1,2.3-1.2,2.4-2.4c0-0.7-0.3-1.3-0.7-1.7c0.6-1,1.3-1.9,1.9-2.9c1.6,0.6,3.6-0.3,3.7-2.5C18.6,1.2,17.2,0.1,15.8,0z"/>
    </symbol>

    <!-- document-icon -->
    <symbol id="document-icon" viewBox="0 0 60 60">
        <path fill="#405077" d="M32.5,22.1c0,0.9-1.4,1.6-3.2,1.6H16.4c-1.8,0-3.2-0.7-3.2-1.6c0-0.9,1.4-1.6,3.2-1.6h12.8
            C31,20.5,32.5,21.3,32.5,22.1z"/>
        <path fill="#405077" d="M32.5,31.8c0,0.9-1.4,1.6-3.2,1.6H16.4c-1.8,0-3.2-0.7-3.2-1.6c0-0.9,1.4-1.6,3.2-1.6h12.8
            C31,30.2,32.5,30.9,32.5,31.8z"/>
        <path fill="#405077" d="M32.5,41.4c0,0.9-1.4,1.6-3.2,1.6H16.4c-1.8,0-3.2-0.7-3.2-1.6c0-0.9,1.4-1.6,3.2-1.6h12.8
            C31,39.8,32.5,40.5,32.5,41.4z"/>
        <polygon fill="#405077" points="32.1,17.3 44.9,17.3 44.9,15.2 35.7,1.3 32.1,1.3 			"/>
        <path fill="#405077" d="M38.5,52.6H6.4V7.7h32.5l-3.2-6.4H6.8C3.3,1.3,0,5.3,0,8.8v44.9C0,57.3,3.3,59,6.8,59h32.1
            c3.5,0,6-1.8,6-5.3V15.2l-6.4-6.4V52.6z"/>
    </symbol>

    <!-- doc-phone-in-circle-icon -->
    <symbol id="doc-phone-in-circle-icon" viewBox="0 0 35 35">
        <path fill="#405077" d="M33.4,16.6c0,9.2-7.4,16.6-16.6,16.6c-9.2,0-16.6-7.4-16.6-16.6C0.2,7.5,7.6,0,16.8,0
			C26,0,33.4,7.5,33.4,16.6"/>
        <path fill="#FFFFFF" d="M17.6,10.6c-0.3,0-0.5,0-0.8,0c-0.3,0-0.5-0.2-0.6-0.5c-0.1-0.3-0.1-0.5,0.1-0.8
            c0.1-0.2,0.3-0.3,0.6-0.3c0.5,0,1,0,1.5,0c0.4,0,0.7,0.3,0.7,0.7c0,0.5,0,1.1,0,1.6c0,0.8,0,1.6,0,2.4c0,2-1.5,3.8-3.5,4.2
            c-0.2,0-0.3,0.1-0.3,0.3c0,0.6,0,1.2,0,1.9c0.1,1.4,1.4,2.6,2.8,2.4c1.2-0.1,2.2-1.1,2.4-2.2c0-0.1,0-0.2-0.1-0.2
            c-0.9-0.4-1.4-1.3-1.3-2.3c0.1-1,0.9-1.7,1.9-1.9c1.2-0.2,2.4,0.7,2.5,1.9c0.1,1-0.4,2-1.3,2.4C22,20.3,22,20.4,22,20.5
            c-0.1,0.9-0.5,1.7-1.2,2.4c-1.4,1.4-3.7,1.6-5.3,0.4c-1-0.8-1.6-1.8-1.7-3.1c0-0.7,0-1.3,0-2c0-0.1,0-0.2-0.2-0.2
            c-1.7-0.4-2.8-1.4-3.3-3c-0.1-0.5-0.2-1-0.2-1.4c0-1.2,0-2.3,0-3.5c0-0.6,0.3-0.9,0.9-0.9c0.4,0,0.9,0,1.3,0
            c0.5,0,0.9,0.5,0.7,0.9c-0.1,0.3-0.3,0.5-0.7,0.5c-0.2,0-0.4,0-0.6,0c-0.1,0-0.2,0-0.2,0.2c0,1,0,2.1,0,3.1
            c0,1.3,1.2,2.5,2.4,2.7c1.6,0.3,3.1-0.7,3.5-2.3c0-0.2,0.1-0.4,0.1-0.6c0-0.9,0-1.9,0-2.8C17.6,10.8,17.6,10.7,17.6,10.6z
             M21.3,17c-0.6,0-1.1,0.5-1.1,1.1c0,0.6,0.5,1.1,1.1,1.2c0.6,0,1.1-0.5,1.2-1.1C22.5,17.5,22,17,21.3,17z"/>
    </symbol>
</svg>
